<?xml version="1.0" standalone="no"?>
<!DOCTYPE svg PUBLIC "-//W3C//DTD SVG 20010904//EN"
 "http://www.w3.org/TR/2001/REC-SVG-20010904/DTD/svg10.dtd">
<svg version="1.0" xmlns="http://www.w3.org/2000/svg"
 width="895.000000pt" height="895.000000pt" viewBox="0 0 895.000000 895.000000"
 preserveAspectRatio="xMidYMid meet">
<metadata>
Created by potrace 1.14, written by Peter Selinger 2001-2017
</metadata>
<g transform="translate(0.000000,895.000000) scale(0.100000,-0.100000)"
fill="#000000" stroke="none">
<path d="M5 4475 c0 -2464 1 -3471 2 -2237 2 1234 2 3250 0 4480 -1 1230 -2
221 -2 -2243z"/>
<path d="M4105 8879 c-726 -62 -1446 -310 -2049 -707 -501 -329 -951 -779
-1278 -1277 -406 -619 -650 -1336 -709 -2090 -17 -216 -6 -675 21 -875 52
-392 132 -710 267 -1060 107 -280 273 -599 442 -850 204 -303 502 -642 760
-866 33 -29 57 -55 53 -59 -4 -4 -2 -5 3 -4 6 2 67 -41 136 -96 230 -181 445
-318 724 -459 110 -56 218 -109 240 -118 22 -9 69 -29 105 -44 311 -130 746
-240 1145 -290 202 -25 696 -30 915 -10 530 51 1041 192 1505 416 169 81 383
201 500 279 177 119 200 135 205 140 3 4 34 28 70 55 36 26 89 68 118 93 29
26 61 53 72 60 31 22 166 149 259 243 167 170 299 322 407 470 196 268 290
423 429 705 187 383 317 785 385 1194 48 293 55 388 55 766 -1 378 -13 520
-71 818 -149 773 -501 1490 -1018 2076 -768 871 -1808 1393 -2971 1491 -141
12 -576 11 -720 -1z"/>
</g>
</svg>
